HIERARCHY
ROOT Hips
{
  OFFSET 0.370964 79.426 0.0717558
  CHANNELS 6 Xposition Yposition Zposition Zrotation Xrotation Yrotation
  JOINT Spine
  {
    OFFSET 0 8.5038 -4.6017
    CHANNELS 6 Xposition Yposition Zposition Zrotation Xrotation Yrotation
    JOINT Spine1
    {
      OFFSET 0 7.7603 0.4054
      CHANNELS 6 Xposition Yposition Zposition Zrotation Xrotation Yrotation
      JOINT Spine2
      {
        OFFSET 0 9.6025 -2.1374
        CHANNELS 6 Xposition Yposition Zposition Zrotation Xrotation Yrotation
        JOINT Neck
        {
          OFFSET 0 21.6389 -0.45
          CHANNELS 6 Xposition Yposition Zposition Zrotation Xrotation Yrotation
          JOINT Head
          {
            OFFSET -0.0001 12.2197 3.3238
            CHANNELS 6 Xposition Yposition Zposition Zrotation Xrotation Yrotation
            End Site
            {
              OFFSET 0.0001 17.074 0.5097
            }
          }
        }
        JOINT LeftShoulder
        {
          OFFSET 2.1846 20.8826 7.1545
          CHANNELS 6 Xposition Yposition Zposition Zrotation Xrotation Yrotation
          JOINT LeftArm
          {
            OFFSET 12.7628 2.9953 -4.8467
            CHANNELS 6 Xposition Yposition Zposition Zrotation Xrotation Yrotation
            JOINT LeftForeArm
            {
              OFFSET 27.1108 -0.0961 -0.2349
              CHANNELS 6 Xposition Yposition Zposition Zrotation Xrotation Yrotation
              JOINT LeftHand
              {
                OFFSET 22.6162 0.0656 -0.1355
                CHANNELS 6 Xposition Yposition Zposition Zrotation Xrotation Yrotation
                JOINT LeftHandIndex1
                {
                  OFFSET 8.7654 0.7666 2.4346
                  CHANNELS 6 Xposition Yposition Zposition Zrotation Xrotation Yrotation
                  JOINT LeftHandIndex2
                  {
                    OFFSET 3.2787 -0.7995 0.5777
                    CHANNELS 6 Xposition Yposition Zposition Zrotation Xrotation Yrotation
                    JOINT LeftHandIndex3
                    {
                      OFFSET 2.2383 -0.5459 0.3945
                      CHANNELS 6 Xposition Yposition Zposition Zrotation Xrotation Yrotation
                      End Site
                      {
                        OFFSET 1.5927 -0.4755 0.2584
                      }
                    }
                  }
                }
                JOINT LeftHandMiddle1
                {
                  OFFSET 8.8962 0.8853 0.212
                  CHANNELS 6 Xposition Yposition Zposition Zrotation Xrotation Yrotation
                  JOINT LeftHandMiddle2
                  {
                    OFFSET 4.0539 0.0113 -0.0239
                    CHANNELS 6 Xposition Yposition Zposition Zrotation Xrotation Yrotation
                    JOINT LeftHandMiddle3
                    {
                      OFFSET 2.2471 0.0069 -0.0137
                      CHANNELS 6 Xposition Yposition Zposition Zrotation Xrotation Yrotation
                      End Site
                      {
                        OFFSET 2.0183 -0.1425 0.0027
                      }
                    }
                  }
                }
                JOINT LeftHandRing1
                {
                  OFFSET 8.431 0.5908 -1.9946
                  CHANNELS 6 Xposition Yposition Zposition Zrotation Xrotation Yrotation
                  JOINT LeftHandRing2
                  {
                    OFFSET 3.6785 -0.1862 -0.2303
                    CHANNELS 6 Xposition Yposition Zposition Zrotation Xrotation Yrotation
                    JOINT LeftHandRing3
                    {
                      OFFSET 2.0962 -0.1055 -0.1317
                      CHANNELS 6 Xposition Yposition Zposition Zrotation Xrotation Yrotation
                      End Site
                      {
                        OFFSET 1.8534 -0.2279 -0.0876
                      }
                    }
                  }
                }
                JOINT LeftHandPinky1
                {
                  OFFSET 7.8236 -0.5945 -3.4447
                  CHANNELS 6 Xposition Yposition Zposition Zrotation Xrotation Yrotation
                  JOINT LeftHandPinky2
                  {
                    OFFSET 2.2626 -0.4719 -0.6246
                    CHANNELS 6 Xposition Yposition Zposition Zrotation Xrotation Yrotation
                    JOINT LeftHandPinky3
                    {
                      OFFSET 1.6592 -0.3455 -0.4583
                      CHANNELS 6 Xposition Yposition Zposition Zrotation Xrotation Yrotation
                      End Site
                      {
                        OFFSET 1.4727 -0.4046 -0.3379
                      }
                    }
                  }
                }
                JOINT LeftHandThumb1
                {
                  OFFSET 1.8133 -1.3724 1.3746
                  CHANNELS 6 Xposition Yposition Zposition Zrotation Xrotation Yrotation
                  JOINT LeftHandThumb2
                  {
                    OFFSET 3.376 -1.1087 2.5453
                    CHANNELS 6 Xposition Yposition Zposition Zrotation Xrotation Yrotation
                    JOINT LeftHandThumb3
                    {
                      OFFSET 2.223 -0.7955 1.6016
                      CHANNELS 6 Xposition Yposition Zposition Zrotation Xrotation Yrotation
                      End Site
                      {
                        OFFSET 1.6347 -0.5627 1.1194
                      }
                    }
                  }
                }
              }
            }
          }
        }
        JOINT RightShoulder
        {
          OFFSET -2.1846 20.8826 7.1545
          CHANNELS 6 Xposition Yposition Zposition Zrotation Xrotation Yrotation
          JOINT RightArm
          {
            OFFSET -12.7651 2.9958 -4.8475
            CHANNELS 6 Xposition Yposition Zposition Zrotation Xrotation Yrotation
            JOINT RightForeArm
            {
              OFFSET -27.1108 -0.0961 -0.2349
              CHANNELS 6 Xposition Yposition Zposition Zrotation Xrotation Yrotation
              JOINT RightHand
              {
                OFFSET -22.6162 0.0656 -0.1355
                CHANNELS 6 Xposition Yposition Zposition Zrotation Xrotation Yrotation
                JOINT RightHandIndex1
                {
                  OFFSET -8.7654 0.7667 2.4346
                  CHANNELS 6 Xposition Yposition Zposition Zrotation Xrotation Yrotation
                  JOINT RightHandIndex2
                  {
                    OFFSET -3.2787 -0.7995 0.5777
                    CHANNELS 6 Xposition Yposition Zposition Zrotation Xrotation Yrotation
                    JOINT RightHandIndex3
                    {
                      OFFSET -2.2383 -0.5461 0.3945
                      CHANNELS 6 Xposition Yposition Zposition Zrotation Xrotation Yrotation
                      End Site
                      {
                        OFFSET -1.5928 -0.4755 0.2584
                      }
                    }
                  }
                }
                JOINT RightHandMiddle1
                {
                  OFFSET -8.8962 0.8853 0.212
                  CHANNELS 6 Xposition Yposition Zposition Zrotation Xrotation Yrotation
                  JOINT RightHandMiddle2
                  {
                    OFFSET -4.0539 0.0113 -0.024
                    CHANNELS 6 Xposition Yposition Zposition Zrotation Xrotation Yrotation
                    JOINT RightHandMiddle3
                    {
                      OFFSET -2.2471 0.0069 -0.0137
                      CHANNELS 6 Xposition Yposition Zposition Zrotation Xrotation Yrotation
                      End Site
                      {
                        OFFSET -2.0183 -0.1425 0.0027
                      }
                    }
                  }
                }
                JOINT RightHandRing1
                {
                  OFFSET -8.431 0.5908 -1.9946
                  CHANNELS 6 Xposition Yposition Zposition Zrotation Xrotation Yrotation
                  JOINT RightHandRing2
                  {
                    OFFSET -3.6785 -0.1862 -0.2303
                    CHANNELS 6 Xposition Yposition Zposition Zrotation Xrotation Yrotation
                    JOINT RightHandRing3
                    {
                      OFFSET -2.0962 -0.1055 -0.1317
                      CHANNELS 6 Xposition Yposition Zposition Zrotation Xrotation Yrotation
                      End Site
                      {
                        OFFSET -1.8534 -0.2279 -0.0876
                      }
                    }
                  }
                }
                JOINT RightHandPinky1
                {
                  OFFSET -7.8236 -0.5945 -3.4447
                  CHANNELS 6 Xposition Yposition Zposition Zrotation Xrotation Yrotation
                  JOINT RightHandPinky2
                  {
                    OFFSET -2.2626 -0.4718 -0.624601
                    CHANNELS 6 Xposition Yposition Zposition Zrotation Xrotation Yrotation
                    JOINT RightHandPinky3
                    {
                      OFFSET -1.6592 -0.3454 -0.4583
                      CHANNELS 6 Xposition Yposition Zposition Zrotation Xrotation Yrotation
                      End Site
                      {
                        OFFSET -1.4727 -0.4046 -0.3379
                      }
                    }
                  }
                }
                JOINT RightHandThumb1
                {
                  OFFSET -1.8133 -1.3723 1.3745
                  CHANNELS 6 Xposition Yposition Zposition Zrotation Xrotation Yrotation
                  JOINT RightHandThumb2
                  {
                    OFFSET -3.3759 -1.1088 2.5454
                    CHANNELS 6 Xposition Yposition Zposition Zrotation Xrotation Yrotation
                    JOINT RightHandThumb3
                    {
                      OFFSET -2.223 -0.7954 1.6016
                      CHANNELS 6 Xposition Yposition Zposition Zrotation Xrotation Yrotation
                      End Site
                      {
                        OFFSET -1.6347 -0.5627 1.1194
                      }
                    }
                  }
                }
              }
            }
          }
        }
      }
    }
  }
  JOINT RightUpLeg
  {
    OFFSET -9.0969 3.8439 -0.7498
    CHANNELS 6 Xposition Yposition Zposition Zrotation Xrotation Yrotation
    JOINT RightLeg
    {
      OFFSET -0.7279 -39.5674 0
      CHANNELS 6 Xposition Yposition Zposition Zrotation Xrotation Yrotation
      JOINT RightFoot
      {
        OFFSET 0 -38.8528 0
        CHANNELS 6 Xposition Yposition Zposition Zrotation Xrotation Yrotation
        JOINT RightToeBase
        {
          OFFSET 0 -4.2703 8.9297
          CHANNELS 6 Xposition Yposition Zposition Zrotation Xrotation Yrotation
          End Site
          {
            OFFSET 0 0 5.9906
          }
        }
      }
    }
  }
  JOINT LeftUpLeg
  {
    OFFSET 9.0968 3.8442 -0.7498
    CHANNELS 6 Xposition Yposition Zposition Zrotation Xrotation Yrotation
    JOINT LeftLeg
    {
      OFFSET 0.728 -39.5676 0
      CHANNELS 6 Xposition Yposition Zposition Zrotation Xrotation Yrotation
      JOINT LeftFoot
      {
        OFFSET 0 -38.8528 0
        CHANNELS 6 Xposition Yposition Zposition Zrotation Xrotation Yrotation
        JOINT LeftToeBase
        {
          OFFSET 0 -4.2703 8.9297
          CHANNELS 6 Xposition Yposition Zposition Zrotation Xrotation Yrotation
          End Site
          {
            OFFSET 0 0 5.9906
          }
        }
      }
    }
  }
}
MOTION
Frames:	4
Frame Time:	0.0333333
0.244716 79.4266 0.174459 0.002819 -1.62373 -4.08637e-005 2.77556e-017 8.5038 -4.6017 0.189751 1.26635 0.431979 0 7.7603 0.4054 0.370079 2.53409 0.860074 2.22045e-016 9.6025 -2.1374 0.370079 2.53409 0.860074 0 21.6389 -0.45 3.57441e-005 0.000139536 4.6288e-005 -0.0001 12.2197 3.3238 -0.768237 -4.21317 -1.84657 2.1846 20.8826 7.1545 2.28767 0.0485754 1.24192 12.7628 2.9953 -4.8467 -88.0818 -27.8469 6.23497 27.1108 -0.0961 -0.2349 -0.0130929 0.0177875 -0.74955 22.6162 0.0656 -0.1355 7.79927 14.6155 3.88751 8.7654 0.7666 2.4346 -5.51039 11.0307 5.54785 3.2787 -0.7995 0.5777 -28.2605 11.5544 5.71384 2.2383 -0.5459 0.3945 -24.2259 10.1422 4.57558 8.8962 0.8853 0.212 -31.2922 11.5294 0.4513 4.0539 0.0113 -0.0239 -39.7986 7.88787 2.83373 2.2471 0.0069 -0.0137 -40.199 7.95308 2.88868 8.431 0.5908 -1.9946 -34.8396 16.2149 -12.6364 3.6785 -0.1862 -0.2303 -53.4545 1.70034 -10.1259 2.0962 -0.1055 -0.1317 -45.2101 0.824765 -8.7306 7.8236 -0.5945 -3.4447 -30.5733 9.73457 -29.5293 2.2626 -0.4719 -0.6246 -52.722 -10.2259 -20.7374 1.6592 -0.3455 -0.4583 -39.0579 -9.54597 -14.7134 1.8133 -1.3724 1.3746 1.21023 -20.6313 16.59 3.376 -1.1087 2.5453 2.16201 2.33863 4.87407 2.223 -0.7955 1.6016 1.19084 1.23883 2.63995 -2.1846 20.8826 7.1545 3.03253 -0.196487 -3.75051 -12.7651 2.9958 -4.8475 85.3188 -39.1803 -4.19967 -27.1108 -0.0961 -0.2349 0.0141928 0.076592 3.87443 -22.6162 0.0656 -0.1355 -7.06201 26.469 -5.00596 -8.7654 0.7667 2.4346 3.08003 4.15723 -7.99612 -3.2787 -0.7995 0.5777 23.0577 8.88167 -4.06717 -2.2383 -0.5461 0.3945 19.0465 7.4918 -3.11675 -8.8962 0.8853 0.212 27.2617 9.81821 0.559114 -4.0539 0.0113 -0.024 45.125 7.44504 -2.96314 -2.2471 0.0069 -0.0137 46.9045 7.67118 -3.1923 -8.431 0.5908 -1.9946 30.8203 14.7406 13.2134 -3.6785 -0.1862 -0.2303 58.4506 0.997678 11.9681 -2.0962 -0.1055 -0.1317 51.5614 0.243974 10.69 -7.8236 -0.5945 -3.4447 26.444 8.55649 29.3034 -2.2626 -0.4718 -0.624601 57.5 -11.3432 24.0911 -1.6592 -0.3454 -0.4583 45.1406 -11.1055 18.2837 -1.8133 -1.3723 1.3745 1.03651 -25.4548 -14.7969 -3.3759 -1.1088 2.5454 -2.56435 2.98815 -6.14767 -2.223 -0.7954 1.6016 2.95046 -2.75811 6.44568 -9.0969 3.8439 -0.7498 -0.315239 2.66401 -8.8706 -0.7279 -39.5674 3.33067e-016 -0.0556071 4.63611 -0.213757 0 -38.8528 0 7.16254 -4.59395 7.41983 0 -4.2703 8.9297 -0.0530395 -0.573275 0.0623675 9.0968 3.8442 -0.7498 1.3801 3.17352 5.49858 0.728 -39.5676 2.22045e-016 0.0619414 1.83994 0.297352 -1.77636e-015 -38.8528 -8.88178e-016 -7.15124 -3.10461 -7.31323 0 -4.2703 8.9297 -0.578864 -0.0326111 0.558654 
0.225425 79.4231 0.00757253 -0.000187742 -1.21837 -0.141462 0 8.5038 -4.6017 0.243324 1.05885 0.45278 0 7.7603 0.4054 0.478392 2.11958 0.901286 2.22045e-016 9.6025 -2.1374 0.478391 2.11958 0.901286 -4.44089e-016 21.6389 -0.45 3.57441e-005 0.000139536 4.6288e-005 -0.0001 12.2197 3.3238 -0.912053 -4.12201 -1.9005 2.1846 20.8826 7.1545 1.57188 0.0129285 0.572469 12.7628 2.9953 -4.8467 -87.2553 -24.9693 6.3682 27.1108 -0.0961 -0.2349 -0.0130608 0.017787 -0.852998 22.6162 0.0656 -0.1355 7.06031 13.0359 3.7322 8.7654 0.7666 2.4346 -5.42684 10.6256 5.76699 3.2787 -0.7995 0.5777 -27.6386 11.343 5.53233 2.2383 -0.5459 0.3945 -24.7627 10.3356 4.72159 8.8962 0.8853 0.212 -30.5404 11.0354 0.428154 4.0539 0.0113 -0.0239 -37.8287 7.56124 2.57013 2.2471 0.0069 -0.0137 -39.3221 7.80974 2.76897 8.431 0.5908 -1.9946 -34.4499 15.0634 -12.2011 3.6785 -0.1862 -0.2303 -50.4555 1.35848 -9.63271 2.0962 -0.1055 -0.1317 -43.2389 0.646066 -8.37993 7.8236 -0.5945 -3.4447 -30.1865 9.00799 -29.297 2.2626 -0.4719 -0.6246 -50.4724 -10.2118 -19.7387 1.6592 -0.3455 -0.4583 -37.9159 -9.42482 -14.2184 1.8133 -1.3724 1.3746 0.8827 -21.3017 16.0357 3.376 -1.1087 2.5453 2.23023 2.41927 5.03424 2.223 -0.7955 1.6016 1.24046 1.29301 2.75224 -2.1846 20.8826 7.1545 2.05992 -0.122357 -3.43249 -12.7651 2.9958 -4.8475 85.2014 -36.0332 -4.68747 -27.1108 -0.0961 -0.2349 0.0143655 0.0766035 3.74521 -22.6162 0.0656 -0.1355 -6.35902 24.9881 -4.29176 -8.7654 0.7667 2.4346 3.16504 4.2096 -8.05259 -3.2787 -0.7995 0.5777 22.8147 8.79974 -4.00698 -2.2383 -0.5461 0.3945 19.953 7.81273 -3.32337 -8.8962 0.8853 0.212 26.8003 9.39494 0.502232 -4.0539 0.0113 -0.024 42.7947 7.13812 -2.67382 -2.2471 0.0069 -0.0137 45.5767 7.50314 -3.02066 -8.431 0.5908 -1.9946 30.71 13.6509 12.7242 -3.6785 -0.1862 -0.2303 55.1119 0.612988 11.3596 -2.0962 -0.1055 -0.1317 49.1564 0.0180786 10.2244 -7.8236 -0.5945 -3.4447 26.3258 7.88346 29.0817 -2.2626 -0.4718 -0.624601 54.9005 -11.3954 22.868 -1.6592 -0.3454 -0.4583 43.5551 -10.986 17.5449 -1.8133 -1.3723 1.3745 1.18532 -25.7943 -14.3251 -3.3759 -1.1088 2.5454 -2.59435 3.02718 -6.22374 -2.223 -0.7954 1.6016 2.59576 -2.45846 5.69762 -9.0969 3.8439 -0.7498 -0.32799 2.14486 -8.7313 -0.7279 -39.5674 2.22045e-016 -0.0603619 4.64869 -0.256116 3.55271e-015 -38.8528 -8.88179e-016 7.11542 -4.59088 7.70964 0 -4.2703 8.9297 -0.0058203 -0.464332 -0.139706 9.0968 3.8442 -0.7498 1.37549 2.90846 4.71256 0.728 -39.5676 0 0.0478773 1.40755 0.193953 0 -38.8528 0 -7.14048 -2.9001 -6.33556 1.77636e-015 -4.2703 8.9297 -0.550764 -0.0550911 0.62501 
0.199909 79.419 -0.164204 -0.00105643 -0.790702 -0.280911 0 8.5038 -4.6017 0.292053 0.846905 0.473327 0 7.7603 0.4054 0.577189 1.69617 0.942479 2.22045e-016 9.6025 -2.1374 0.577189 1.69617 0.942478 4.44089e-016 21.6389 -0.45 3.57441e-005 0.000139536 4.6288e-005 -0.0001 12.2197 3.3238 -1.03384 -4.03286 -1.94669 2.1846 20.8826 7.1545 0.941458 -0.00924928 -0.0989515 12.7628 2.9953 -4.8467 -86.5472 -22.0636 6.46053 27.1108 -0.0961 -0.2349 -0.0130299 0.0177865 -0.952261 22.6162 0.0656 -0.1355 6.29788 11.4259 3.53961 8.7654 0.7666 2.4346 -5.34097 10.2168 5.98864 3.2787 -0.7995 0.5777 -27.0117 11.1275 5.35158 2.2383 -0.5459 0.3945 -25.3056 10.5294 4.871 8.8962 0.8853 0.212 -29.7825 10.5362 0.411461 4.0539 0.0113 -0.0239 -35.8425 7.22245 2.31581 2.2471 0.0069 -0.0137 -38.4372 7.66315 2.65038 8.431 0.5908 -1.9946 -34.0492 13.9035 -11.7556 3.6785 -0.1862 -0.2303 -47.4245 1.0399 -9.11721 2.0962 -0.1055 -0.1317 -41.2473 0.477948 -8.01978 7.8236 -0.5945 -3.4447 -29.7936 8.27581 -29.0577 2.2626 -0.4719 -0.6246 -48.2015 -10.1584 -18.7316 1.6592 -0.3455 -0.4583 -36.7643 -9.2927 -13.7214 1.8133 -1.3724 1.3746 0.543263 -21.9757 15.4692 3.376 -1.1087 2.5453 2.29892 2.50084 5.19582 2.223 -0.7955 1.6016 1.29052 1.34783 2.86564 -2.1846 20.8826 7.1545 1.11366 -0.0576406 -3.12865 -12.7651 2.9958 -4.8475 85.1444 -32.7624 -5.13207 -27.1108 -0.0961 -0.2349 0.0145422 0.0766148 3.61311 -22.6162 0.0656 -0.1355 -5.71368 23.5462 -3.53561 -8.7654 0.7667 2.4346 3.25094 4.26239 -8.10968 -3.2787 -0.7995 0.5777 22.5694 8.71674 -3.94656 -2.2383 -0.5461 0.3945 20.8701 8.13348 -3.53734 -8.8962 0.8853 0.212 26.3345 8.96798 0.441376 -4.0539 0.0113 -0.024 40.4448 6.81661 -2.39485 -2.2471 0.0069 -0.0137 44.2368 7.3295 -2.85143 -8.431 0.5908 -1.9946 30.5894 12.5514 12.2302 -3.6785 -0.1862 -0.2303 51.7365 0.261181 10.7235 -2.0962 -0.1055 -0.1317 46.726 -0.189984 9.7451 -7.8236 -0.5945 -3.4447 26.2038 7.20428 28.8567 -2.2626 -0.4718 -0.624601 52.2746 -11.3929 21.6315 -1.6592 -0.3454 -0.4583 41.9564 -10.845 16.8027 -1.8133 -1.3723 1.3745 1.33918 -26.1361 -13.8463 -3.3759 -1.1088 2.5454 -2.62459 3.06665 -6.30048 -2.223 -0.7954 1.6016 2.24162 -2.15119 4.9443 -9.0969 3.8439 -0.7498 -0.337151 1.6014 -8.59656 -0.7279 -39.5674 0 -0.0656767 4.65773 -0.297903 0 -38.8528 0 7.06422 -4.58765 8.00348 1.77636e-015 -4.2703 8.9297 0.0427295 -0.351665 -0.337012 9.0968 3.8442 -0.7498 1.37538 2.66163 3.92021 0.728 -39.5676 -4.44089e-016 0.0306786 0.893412 0.0780618 -1.77636e-015 -38.8528 0 -7.13231 -2.65567 -5.33663 1.77636e-015 -4.2703 8.9297 -0.523176 -0.0760243 0.688908 
0.163214 79.4129 -0.355785 0.000730515 -0.291747 -0.410376 -2.77556e-017 8.5038 -4.6017 0.331222 0.620781 0.494704 -1.11022e-016 7.7603 0.4054 0.657124 1.24438 0.985891 0 9.6025 -2.1374 0.657125 1.24438 0.985892 4.44089e-016 21.6389 -0.45 3.57441e-005 0.000139536 4.6288e-005 -0.0001 12.2197 3.3238 -1.10545 -3.95633 -1.99171 2.1846 20.8826 7.1545 0.512456 -0.0104023 -0.813122 12.7628 2.9953 -4.8467 -86.087 -19.0979 6.5354 27.1108 -0.0961 -0.2349 -0.0130036 0.0177861 -1.03714 22.6162 0.0656 -0.1355 5.45193 9.75742 3.289 8.7654 0.7666 2.4346 -5.2512 9.79725 6.21666 3.2787 -0.7995 0.5777 -26.3689 10.9042 5.16856 2.2383 -0.5459 0.3945 -25.8643 10.7272 5.02652 8.8962 0.8853 0.212 -29.0054 10.0232 0.401359 4.0539 0.0113 -0.0239 -33.8052 6.86559 2.06716 2.2471 0.0069 -0.0137 -37.5288 7.5107 2.53099 8.431 0.5908 -1.9946 -33.6299 12.7152 -11.2916 3.6785 -0.1862 -0.2303 -44.3083 0.741502 -8.57093 2.0962 -0.1055 -0.1317 -39.2004 0.318384 -7.64397 7.8236 -0.5945 -3.4447 -29.3875 7.5254 -28.8071 2.2626 -0.4719 -0.6246 -45.8706 -10.0627 -17.7003 1.6592 -0.3455 -0.4583 -35.5829 -9.14668 -13.2138 1.8133 -1.3724 1.3746 0.185399 -22.6647 14.8799 3.376 -1.1087 2.5453 2.36928 2.58485 5.3618 2.223 -0.7955 1.6016 1.34179 1.40427 2.98207 -2.1846 20.8826 7.1545 0.200029 -0.00611464 -2.90336 -12.7651 2.9958 -4.8475 85.1957 -29.142 -5.51938 -27.1108 -0.0961 -0.2349 0.0149039 0.0736212 3.47922 -22.6162 0.0656 -0.1355 -5.24596 22.1972 -2.6858 -8.7654 0.7667 2.4346 3.33932 4.31656 -8.16845 -3.2787 -0.7995 0.5777 22.3177 8.63122 -3.8849 -2.2383 -0.5461 0.3945 21.8145 8.4594 -3.76273 -8.8962 0.8853 0.212 25.856 8.5299 0.375267 -4.0539 0.0113 -0.024 38.034 6.47479 -2.12254 -2.2471 0.0069 -0.0137 42.8615 7.14712 -2.68196 -8.431 0.5908 -1.9946 30.4559 11.423 11.7223 -3.6785 -0.1862 -0.2303 48.2652 -0.0605831 10.0496 -2.0962 -0.1055 -0.1317 44.2274 -0.382359 9.24393 -7.8236 -0.5945 -3.4447 26.0759 6.5071 28.6243 -2.2626 -0.4718 -0.624601 49.5781 -11.3325 20.363 -1.6592 -0.3454 -0.4583 40.317 -10.679 16.0453 -1.8133 -1.3723 1.3745 1.50106 -26.4859 -13.3519 -3.3759 -1.1088 2.5454 -2.65567 3.10722 -6.37938 -2.223 -0.7954 1.6016 1.88216 -1.83074 4.17254 -9.0969 3.8439 -0.7498 -0.339586 0.950784 -8.47038 -0.7279 -39.5674 -1.11022e-016 -0.0726286 4.7111 -0.347707 0 -38.8528 0 6.99838 -4.59111 8.31338 0 -4.2703 8.9297 0.095277 -0.23022 -0.527695 9.0968 3.8442 -0.7498 1.39419 2.43135 3.1113 0.728 -39.5676 0 0.00610161 0.171579 -0.0786432 1.77636e-015 -38.8528 0 -7.12745 -2.29764 -4.27778 -1.77636e-015 -4.2703 8.9297 -0.497252 -0.0942348 0.748694 
